ply
format ascii 1.0
comment Exported by Aspose.3D 23.4.0
element vertex 16
property float x
property float y
property float z
property float nx
property float ny
property float nz
property float u
property float v
element face 10
property list uchar int vertex_index
end_header
0 2 3 0 0.6666666666666666 0.3333333333333333 0.5 1
-1.414213562373095 1.4142135623730951 3 -0.4714045207910316 0.4714045207910317 0.3333333333333333 0.8535533905932736 0.8535533905932736
-2 1.2246467991473532E-16 3 -0.6666666666666666 4.082155997157844E-17 0.3333333333333333 1 0.5
-1.4142135623730951 -1.414213562373095 3 -0.4714045207910317 -0.4714045207910316 0.3333333333333333 0.8535533905932736 0.14644660940672627
-2.4492935982947064E-16 -2 3 -8.164311994315688E-17 -0.6666666666666666 0.3333333333333333 0.5000000000000001 0
1.414213562373095 -1.4142135623730954 3 0.4714045207910316 -0.4714045207910318 0.3333333333333333 0.14644660940672627 0.14644660940672616
2 -3.6739403974420594E-16 3 0.6666666666666666 -1.224646799147353E-16 0.3333333333333333 0 0.49999999999999983
1.4142135623730954 1.4142135623730947 3 0.4714045207910318 0.47140452079103157 0.3333333333333333 0.14644660940672616 0.8535533905932736
0 2 -3 0 0.6666666666666666 -0.3333333333333333 0.5 1
-1.414213562373095 1.4142135623730951 -3 -0.4714045207910316 0.4714045207910317 -0.3333333333333333 0.8535533905932736 0.8535533905932736
-2 1.2246467991473532E-16 -3 -0.6666666666666666 4.082155997157844E-17 -0.3333333333333333 1 0.5
-1.4142135623730951 -1.414213562373095 -3 -0.4714045207910317 -0.4714045207910316 -0.3333333333333333 0.8535533905932736 0.14644660940672627
-2.4492935982947064E-16 -2 -3 -8.164311994315688E-17 -0.6666666666666666 -0.3333333333333333 0.5000000000000001 0
1.414213562373095 -1.4142135623730954 -3 0.4714045207910316 -0.4714045207910318 -0.3333333333333333 0.14644660940672627 0.14644660940672616
2 -3.6739403974420594E-16 -3 0.6666666666666666 -1.224646799147353E-16 -0.3333333333333333 0 0.49999999999999983
1.4142135623730954 1.4142135623730947 -3 0.4714045207910318 0.47140452079103157 -0.3333333333333333 0.14644660940672616 0.8535533905932736
4 1 0 8 9
4 2 1 9 10
4 3 2 10 11
4 4 3 11 12
4 5 4 12 13
4 6 5 13 14
4 7 6 14 15
4 0 7 15 8
8 0 1 2 3 4 5 6 7
8 15 14 13 12 11 10 9 8
